<svg width="20" height="20" viewBox="0 0 20 20" fill="none" xmlns="http://www.w3.org/2000/svg">
<rect width="20" height="20" rx="5.35211" fill="#F4F4F4"/>
<path d="M6.33803 10.8451C4.64789 10.169 1.40845 10.0939 0 10.1408V9.85916C0.985916 10 4.92958 9.71831 6.33803 9.15493C7.74648 8.59155 8.16901 7.88732 9.01408 6.76056C9.69014 5.85916 9.85916 1.87793 9.85916 0H10.1408C10.1408 1.69014 10.2817 4.92958 10.9859 6.76056C11.6901 8.59155 13.662 9.15493 14.6479 9.43662C15.2113 9.77465 18.4507 9.85916 20 9.85916V10.1408C19.0141 10.2817 17.4648 10 14.6479 10.5634C11.8007 11.1328 11.831 12.1127 10.9859 13.2394C10.3099 14.1408 10.1408 18.1221 10.1408 20H9.85916V18.7324C9.74648 15.0141 9.15493 13.4272 8.87324 13.0986C8.73239 12.6761 8.02817 11.5211 6.33803 10.8451Z" fill="#131215"/>
</svg>
