<svg width="26" height="26" viewBox="0 0 26 26" fill="none" xmlns="http://www.w3.org/2000/svg">
<path d="M22.4936 13.5508C22.9201 12.9872 23.1562 12.2966 23.1562 11.578C23.1562 10.438 22.5189 9.35886 21.4932 8.7571C21.2291 8.6022 20.9284 8.52068 20.6223 8.52097H14.5336L14.6859 5.40046C14.7215 4.64636 14.4549 3.93034 13.9369 3.38444C13.6827 3.11537 13.376 2.90129 13.0358 2.75543C12.6956 2.60957 12.3291 2.53502 11.959 2.5364C10.6387 2.5364 9.4707 3.42507 9.12031 4.69714L6.93926 12.5936H3.65625C3.20684 12.5936 2.84375 12.9567 2.84375 13.4061V22.6483C2.84375 23.0977 3.20684 23.4608 3.65625 23.4608H18.9236C19.1572 23.4608 19.3857 23.4151 19.5965 23.3237C20.8051 22.8083 21.5846 21.6276 21.5846 20.3174C21.5846 19.9975 21.5389 19.6827 21.4475 19.378C21.874 18.8143 22.1102 18.1237 22.1102 17.4051C22.1102 17.0852 22.0645 16.7704 21.973 16.4657C22.3996 15.902 22.6357 15.2114 22.6357 14.4928C22.6307 14.1729 22.585 13.8555 22.4936 13.5508ZM4.67188 21.6327V14.4217H6.72852V21.6327H4.67188ZM20.8305 12.6698L20.2744 13.1522L20.6273 13.7971C20.7436 14.0096 20.8039 14.2481 20.8025 14.4903C20.8025 14.9092 20.6197 15.3079 20.3049 15.5821L19.7488 16.0645L20.1018 16.7094C20.218 16.9219 20.2783 17.1604 20.277 17.4026C20.277 17.8216 20.0941 18.2202 19.7793 18.4944L19.2232 18.9768L19.5762 19.6217C19.6924 19.8342 19.7527 20.0727 19.7514 20.3149C19.7514 20.8837 19.4162 21.3966 18.8982 21.6301H8.35352V14.3405L10.8799 5.18718C10.945 4.95257 11.0849 4.74559 11.2782 4.5976C11.4716 4.44961 11.7079 4.36867 11.9514 4.36706C12.1443 4.36706 12.3348 4.42292 12.4871 4.53718C12.7385 4.72507 12.873 5.00944 12.8578 5.31159L12.6141 10.3491H20.5969C21.0488 10.6258 21.3281 11.093 21.3281 11.578C21.3281 11.9969 21.1453 12.393 20.8305 12.6698Z" fill="#F4F4F4"/>
</svg>
