<svg width="21" height="12" viewBox="0 0 21 12" fill="none" xmlns="http://www.w3.org/2000/svg">
<path fill-rule="evenodd" clip-rule="evenodd" d="M10.2684 11.9246H11.5369C11.5369 11.9246 11.9175 11.8611 12.1078 11.6708C12.2981 11.4806 12.2981 11.1 12.2981 11.1C12.2981 11.1 12.2981 9.45085 13.0592 9.19714C13.8204 8.94342 14.8352 10.8463 15.8501 11.544C16.6112 12.1148 17.1821 11.988 17.1821 11.988L19.9729 11.9246C19.9729 11.9246 21.4318 11.8611 20.7341 10.656C20.6706 10.5926 20.3535 9.83142 18.6409 8.24571C16.8649 6.59657 17.1187 6.91371 19.2118 4.05942C20.4804 2.34685 20.9878 1.332 20.8609 0.82457C20.7341 0.380571 19.7826 0.507428 19.7826 0.507428H16.6112C16.6112 0.507428 16.3575 0.443999 16.2306 0.570856C16.0404 0.697713 15.9769 0.887999 15.9769 0.887999C15.9769 0.887999 15.4695 2.22 14.8352 3.36171C13.4398 5.70857 12.8689 5.83542 12.6787 5.70857C12.1712 5.39142 12.2981 4.31314 12.2981 3.61543C12.2981 1.332 12.6787 0.38057 11.6004 0.126856C11.2832 0.0634278 11.0295 0 10.1415 0C8.9998 0 8.04837 -2.38419e-07 7.54094 0.253714C7.16037 0.443999 6.90666 0.82457 7.09695 0.82457C7.28723 0.82457 7.79466 0.951428 8.04837 1.26857C8.30209 1.83943 8.30209 2.79085 8.30209 2.79085C8.30209 2.79085 8.49237 5.51828 7.85809 5.83542C7.41409 6.08914 6.84323 5.58171 5.57466 3.42514C4.94038 2.34686 4.43295 1.07828 4.43295 1.07828C4.43295 1.07828 4.36952 0.824571 4.17923 0.697714C3.98895 0.570857 3.67181 0.507428 3.67181 0.507428H0.690666C0.690666 0.507428 0.246666 0.507428 0.0563809 0.697714C-0.0704761 0.888 0.0563809 1.20514 0.0563809 1.20514C0.0563809 1.20514 2.40324 6.65999 5.06723 9.45085C7.54095 12.1148 10.2684 11.9246 10.2684 11.9246Z" fill="#F4F4F4"/>
</svg>
