<svg width="30" height="17" viewBox="0 0 30 17" fill="none" xmlns="http://www.w3.org/2000/svg">
<path fill-rule="evenodd" clip-rule="evenodd" d="M14.7342 16.6463H16.4785C16.4785 16.6463 17.0018 16.5591 17.2635 16.2974C17.5251 16.0358 17.5251 15.5125 17.5251 15.5125C17.5251 15.5125 17.5251 13.2449 18.5717 12.8961C19.6182 12.5472 21.0137 15.1636 22.4091 16.123C23.4557 16.9079 24.2406 16.7335 24.2406 16.7335L28.078 16.6463C28.078 16.6463 30.0839 16.5591 29.1246 14.902C29.0374 14.8148 28.6013 13.7682 26.2465 11.5878C23.8045 9.32028 24.1534 9.75635 27.0314 5.83171C28.7757 3.47693 29.4734 2.0815 29.299 1.38378C29.1246 0.773285 27.8164 0.947713 27.8164 0.947713H23.4557C23.4557 0.947713 23.1068 0.860499 22.9324 1.03493C22.6707 1.20936 22.5835 1.471 22.5835 1.471C22.5835 1.471 21.8858 3.3025 21.0137 4.87235C19.095 8.09928 18.31 8.27371 18.0484 8.09928C17.3507 7.66321 17.5251 6.18057 17.5251 5.22121C17.5251 2.0815 18.0484 0.773284 16.5657 0.424427C16.1297 0.337213 15.7808 0.25 14.5598 0.25C12.99 0.25 11.6817 0.25 10.984 0.598857C10.4607 0.860499 10.1119 1.38378 10.3735 1.38378C10.6352 1.38378 11.3329 1.55821 11.6817 1.99428C12.0306 2.77921 12.0306 4.08743 12.0306 4.08743C12.0306 4.08743 12.2922 7.83764 11.4201 8.27371C10.8096 8.62256 10.0247 7.92485 8.2804 4.95957C7.40825 3.47693 6.71054 1.73264 6.71054 1.73264C6.71054 1.73264 6.62332 1.38379 6.36168 1.20936C6.10004 1.03493 5.66397 0.947713 5.66397 0.947713H1.5649C1.5649 0.947713 0.954401 0.947714 0.692758 1.20936C0.51833 1.471 0.692758 1.90707 0.692758 1.90707C0.692758 1.90707 3.91968 9.40749 7.58268 13.2449C10.984 16.9079 14.7342 16.6463 14.7342 16.6463Z" fill="#2787F5"/>
</svg>
