<svg width="26" height="26" viewBox="0 0 26 26" fill="none" xmlns="http://www.w3.org/2000/svg">
<path d="M12.7284 1.57851C12.8364 1.34849 13.1636 1.34849 13.2716 1.57851L16.6401 8.75431C16.6825 8.84478 16.7673 8.90816 16.866 8.92334L24.4233 10.0849C24.6646 10.122 24.7629 10.4163 24.5924 10.591L19.1058 16.2102C19.0393 16.2784 19.0091 16.3741 19.0244 16.4681L20.3165 24.3902C20.3568 24.6373 20.0944 24.8222 19.8753 24.701L13.1452 20.9793C13.0548 20.9294 12.9452 20.9294 12.8548 20.9793L6.12474 24.701C5.90557 24.8222 5.64315 24.6373 5.68347 24.3902L6.97562 16.4681C6.99095 16.3741 6.96073 16.2784 6.89418 16.2102L1.40761 10.591C1.23707 10.4163 1.33541 10.122 1.57669 10.0849L9.13395 8.92334C9.23274 8.90816 9.31748 8.84478 9.35995 8.75431L12.7284 1.57851Z" fill="#F4F4F4" stroke="#F4F4F4" stroke-width="2" stroke-linecap="round" stroke-linejoin="round"/>
</svg>
