<svg width="20" height="20" viewBox="0 0 20 20" fill="none" xmlns="http://www.w3.org/2000/svg">
<path d="M19.2154 16.3216C18.7137 15.1989 17.9856 14.1792 17.0718 13.3191C16.1607 12.4566 15.0814 11.7689 13.8936 11.294C13.883 11.2889 13.8723 11.2864 13.8617 11.2814C15.5186 10.1508 16.5957 8.30904 16.5957 6.23116C16.5957 2.78894 13.6436 0 10 0C6.35641 0 3.4043 2.78894 3.4043 6.23116C3.4043 8.30904 4.48142 10.1508 6.13832 11.2839C6.12769 11.2889 6.11705 11.2915 6.10641 11.2965C4.91493 11.7714 3.84579 12.4523 2.92824 13.3216C2.01524 14.1823 1.2873 15.2019 0.784636 16.3241C0.290815 17.4227 0.0244864 18.6006 6.65049e-05 19.794C-0.000643344 19.8208 0.00433542 19.8475 0.0147096 19.8724C0.0250837 19.8974 0.0406433 19.9202 0.0604714 19.9394C0.0802996 19.9586 0.103995 19.9738 0.130162 19.9842C0.156329 19.9946 0.184437 20 0.212831 20H1.80857C1.92559 20 2.01867 19.9121 2.02133 19.804C2.07452 17.8643 2.89898 16.0477 4.35642 14.6709C5.86439 13.2462 7.86704 12.4623 10 12.4623C12.133 12.4623 14.1356 13.2462 15.6436 14.6709C17.101 16.0477 17.9255 17.8643 17.9787 19.804C17.9813 19.9146 18.0744 20 18.1914 20H19.7872C19.8156 20 19.8437 19.9946 19.8698 19.9842C19.896 19.9738 19.9197 19.9586 19.9395 19.9394C19.9594 19.9202 19.9749 19.8974 19.9853 19.8724C19.9957 19.8475 20.0006 19.8208 19.9999 19.794C19.9733 18.593 19.71 17.4246 19.2154 16.3216ZM10 10.5528C8.77926 10.5528 7.63033 10.103 6.76598 9.28643C5.90162 8.46985 5.42556 7.38442 5.42556 6.23116C5.42556 5.07789 5.90162 3.99246 6.76598 3.17588C7.63033 2.3593 8.77926 1.90955 10 1.90955C11.2207 1.90955 12.3697 2.3593 13.234 3.17588C14.0984 3.99246 14.5744 5.07789 14.5744 6.23116C14.5744 7.38442 14.0984 8.46985 13.234 9.28643C12.3697 10.103 11.2207 10.5528 10 10.5528Z" fill="#F4F4F4"/>
</svg>
